<svg width="21" height="21" viewBox="0 0 21 21" fill="none" xmlns="http://www.w3.org/2000/svg">
<path fill-rule="evenodd" clip-rule="evenodd" d="M5.90625 4.41744C5.90625 3.40113 10.5 2.625 10.5 2.625C10.5 2.625 15.0938 3.40113 15.0938 4.41744C15.0938 5.77238 14.2581 6.34375 14.2581 6.34375H6.74187C6.74187 6.34375 5.90625 5.77238 5.90625 4.41744ZM11.1562 4.59375C11.1562 4.7678 11.0871 4.93472 10.964 5.05779C10.841 5.18086 10.674 5.25 10.5 5.25C10.326 5.25 10.159 5.18086 10.036 5.05779C9.91289 4.93472 9.84375 4.7678 9.84375 4.59375C9.84375 4.4197 9.91289 4.25278 10.036 4.12971C10.159 4.00664 10.326 3.9375 10.5 3.9375C10.674 3.9375 10.841 4.00664 10.964 4.12971C11.0871 4.25278 11.1562 4.4197 11.1562 4.59375ZM13.9186 7.9975C14.5267 7.52281 14.4322 7 14.4322 7H6.56775C6.56775 7 6.47281 7.52281 7.08138 7.9975C6.96935 8.50862 6.97335 9.03836 7.09309 9.54774C7.21282 10.0571 7.44524 10.5332 7.77325 10.9408C8.10126 11.3485 8.51651 11.6775 8.98843 11.9035C9.46036 12.1295 9.97696 12.2468 10.5002 12.2468C11.0235 12.2468 11.5401 12.1295 12.012 11.9035C12.4839 11.6775 12.8992 11.3485 13.2272 10.9408C13.5552 10.5332 13.7876 10.0571 13.9074 9.54774C14.0271 9.03836 14.0311 8.50862 13.9191 7.9975H13.9186ZM10.5 8.75C11.6904 8.75 12.5226 8.61262 13.104 8.41487C13.1513 8.78471 13.1193 9.16037 13.0101 9.51686C12.9009 9.87336 12.717 10.2025 12.4706 10.4824C12.2243 10.7622 11.9211 10.9864 11.5814 11.14C11.2416 11.2935 10.8731 11.373 10.5002 11.373C10.1274 11.373 9.75881 11.2935 9.41905 11.14C9.0793 10.9864 8.77616 10.7622 8.52981 10.4824C8.28347 10.2025 8.09957 9.87336 7.99035 9.51686C7.88114 9.16037 7.84913 8.78471 7.89644 8.41487C8.47744 8.61262 9.30956 8.75 10.5 8.75ZM11.1562 13.125C11.2723 13.125 11.3836 13.1711 11.4656 13.2531C11.5477 13.3352 11.5938 13.4465 11.5938 13.5625V14.1671C11.5937 14.2484 11.5711 14.328 11.5283 14.397C11.4856 14.4661 11.4245 14.5219 11.3518 14.5583L11.1562 14.6562L11.4087 15.9184L13.2637 13.1359C13.3906 13.1359 13.5087 13.1368 13.6154 13.1377C15.9801 13.6771 18.375 14.777 18.375 16.4316V18.375H2.625V16.4316C2.625 14.777 5.12444 13.6644 7.48913 13.125C7.48081 13.1267 7.56963 13.1281 7.73194 13.1294L9.60619 15.9403L9.84375 14.6562L9.64819 14.5583C9.57553 14.5219 9.51441 14.4661 9.47168 14.397C9.42895 14.328 9.40629 14.2484 9.40625 14.1671V13.5625C9.40625 13.4465 9.45234 13.3352 9.53439 13.2531C9.61644 13.1711 9.72772 13.125 9.84375 13.125H11.1562ZM15.3125 15.4582C15.3125 15.4582 14.7293 15.1668 14.4375 14.875C14.1457 15.1668 13.5625 15.4582 13.5625 15.4582C13.5625 15.4582 13.8679 16.625 14.4375 16.625C15.0071 16.625 15.3125 15.4582 15.3125 15.4582Z" fill="#F8F8F8"/>
</svg>
