<svg width="33" height="30" viewBox="0 0 33 30" fill="none" xmlns="http://www.w3.org/2000/svg">
<rect x="0.5" width="32" height="30" rx="10" fill="#5457DB"/>
<path d="M24.1246 12.375H22.2537L21.7337 10.75C21.1993 9.0793 19.924 8 18.4843 8H14.5155C13.0761 8 11.8005 9.0793 11.2658 10.75L10.7458 12.375H8.8752C8.63114 12.375 8.45207 12.6617 8.51145 12.9574L8.69895 13.8949C8.74051 14.1035 8.89051 14.25 9.0627 14.25H9.68989C9.2702 14.7082 8.99989 15.3742 8.99989 16.125V18C8.99989 18.6297 9.19239 19.198 9.49989 19.6379V21.75C9.49989 22.4402 9.9477 23 10.4999 23H11.4999C12.0521 23 12.4999 22.4402 12.4999 21.75V20.5H20.4999V21.75C20.4999 22.4402 20.9477 23 21.4999 23H22.4999C23.0521 23 23.4999 22.4402 23.4999 21.75V19.6379C23.8074 19.1984 23.9999 18.6301 23.9999 18V16.125C23.9999 15.3742 23.7296 14.7082 23.3102 14.25H23.9374C24.1096 14.25 24.2596 14.1035 24.3012 13.8949L24.4887 12.9574C24.5477 12.6617 24.3687 12.375 24.1246 12.375ZM13.1227 11.6785C13.3505 10.9668 13.9021 10.5 14.5155 10.5H18.4843C19.0977 10.5 19.6493 10.9668 19.8771 11.6785L20.4999 13.625H12.4999L13.1227 11.6785ZM11.4999 17.9922C10.8999 17.9922 10.4999 17.4937 10.4999 16.7461C10.4999 15.9984 10.8999 15.5 11.4999 15.5C12.0999 15.5 12.9999 16.6215 12.9999 17.3691C12.9999 18.1168 12.0999 17.9922 11.4999 17.9922ZM21.4999 17.9922C20.8999 17.9922 19.9999 18.1168 19.9999 17.3691C19.9999 16.6215 20.8999 15.5 21.4999 15.5C22.0999 15.5 22.4999 15.9984 22.4999 16.7461C22.4999 17.4937 22.0999 17.9922 21.4999 17.9922Z" fill="#F8F8F8"/>
</svg>
