<svg width="33" height="30" viewBox="0 0 33 30" fill="none" xmlns="http://www.w3.org/2000/svg">
<rect x="0.5" width="32" height="30" rx="10" fill="#5457DB"/>
<path d="M14 16.6668H16.5M14.8333 15.0002V11.8335C14.8333 11.6785 14.8333 11.601 14.8433 11.5368C14.8708 11.3628 14.9527 11.202 15.0772 11.0774C15.2018 10.9528 15.3626 10.8709 15.5367 10.8435C15.6 10.8335 15.6783 10.8335 15.8333 10.8335H17.75C18.3025 10.8335 18.8324 11.053 19.2231 11.4437C19.6138 11.8344 19.8333 12.3643 19.8333 12.9168C19.8333 13.4694 19.6138 13.9993 19.2231 14.39C18.8324 14.7807 18.3025 15.0002 17.75 15.0002H14.8333ZM14.8333 15.0002V19.1668M14.8333 15.0002H14" stroke="#F8F8F8" stroke-width="1.5" stroke-linecap="round"/>
<path d="M12.3334 7.78176C13.5997 7.04918 15.0372 6.6645 16.5001 6.66676C21.1026 6.66676 24.8334 10.3976 24.8334 15.0001C24.8334 19.6026 21.1026 23.3334 16.5001 23.3334C11.8976 23.3334 8.16675 19.6026 8.16675 15.0001C8.16675 13.4826 8.57258 12.0584 9.28175 10.8334" stroke="#F8F8F8" stroke-width="1.5" stroke-linecap="round"/>
</svg>
