<svg width="33" height="30" viewBox="0 0 33 30" fill="none" xmlns="http://www.w3.org/2000/svg">
<rect x="0.5" width="32" height="30" rx="10" fill="#5457DB"/>
<g clip-path="url(#clip0_140_1068)">
<path fill-rule="evenodd" clip-rule="evenodd" d="M9 7C8.20435 7 7.44129 7.31607 6.87868 7.87868C6.31607 8.44129 6 9.20435 6 10V11H26V10C26 9.20435 25.6839 8.44129 25.1213 7.87868C24.5587 7.31607 23.7956 7 23 7H9ZM26 13H6V20C6 20.7956 6.31607 21.5587 6.87868 22.1213C7.44129 22.6839 8.20435 23 9 23H23C23.7956 23 24.5587 22.6839 25.1213 22.1213C25.6839 21.5587 26 20.7956 26 20V13ZM12 18C12 17.7348 12.1054 17.4804 12.2929 17.2929C12.4804 17.1054 12.7348 17 13 17H17.414L17.293 16.879C17.1054 16.6915 16.9999 16.4371 16.9998 16.1719C16.9997 15.9066 17.105 15.6521 17.2925 15.4645C17.48 15.2769 17.7344 15.1714 17.9996 15.1713C18.2649 15.1712 18.5194 15.2765 18.707 15.464L20.535 17.293C20.7225 17.4805 20.8278 17.7348 20.8278 18C20.8278 18.2652 20.7225 18.5195 20.535 18.707L18.707 20.535C18.6148 20.6305 18.5044 20.7067 18.3824 20.7591C18.2604 20.8115 18.1292 20.8391 17.9964 20.8403C17.8636 20.8414 17.7319 20.8161 17.609 20.7658C17.4861 20.7155 17.3745 20.6413 17.2806 20.5474C17.1867 20.4535 17.1125 20.3419 17.0622 20.219C17.0119 20.0961 16.9866 19.9644 16.9877 19.8316C16.9889 19.6988 17.0165 19.5676 17.0689 19.4456C17.1213 19.3236 17.1975 19.2132 17.293 19.121L17.414 19H13C12.7348 19 12.4804 18.8946 12.2929 18.7071C12.1054 18.5196 12 18.2652 12 18Z" fill="#F8F8F8"/>
</g>
<defs>
<clipPath id="clip0_140_1068">
<rect width="24" height="24" fill="white" transform="translate(4 3)"/>
</clipPath>
</defs>
</svg>
