<svg width="33" height="30" viewBox="0 0 33 30" fill="none" xmlns="http://www.w3.org/2000/svg">
<rect x="0.5" width="32" height="30" rx="10" fill="#5457DB"/>
<path d="M16 22C14.0833 22 12.4131 21.3644 10.9892 20.0933C9.56528 18.8222 8.74944 17.2356 8.54167 15.3333H10.25C10.4444 16.7778 11.0869 17.9722 12.1775 18.9167C13.2681 19.8611 14.5422 20.3333 16 20.3333C17.625 20.3333 19.0036 19.7672 20.1358 18.635C21.2681 17.5028 21.8339 16.1244 21.8333 14.5C21.8333 12.875 21.2672 11.4964 20.135 10.3642C19.0028 9.23194 17.6244 8.66611 16 8.66667C15.0417 8.66667 14.1458 8.88889 13.3125 9.33333C12.4792 9.77778 11.7778 10.3889 11.2083 11.1667H13.5V12.8333H8.5V7.83333H10.1667V9.79167C10.875 8.90278 11.7397 8.21528 12.7608 7.72917C13.7819 7.24306 14.8617 7 16 7C17.0417 7 18.0175 7.19806 18.9275 7.59417C19.8375 7.99028 20.6292 8.52472 21.3025 9.1975C21.9758 9.87139 22.5106 10.6631 22.9067 11.5725C23.3028 12.4819 23.5006 13.4578 23.5 14.5C23.5 15.5417 23.3019 16.5175 22.9058 17.4275C22.5097 18.3375 21.9753 19.1292 21.3025 19.8025C20.6286 20.4758 19.8369 21.0106 18.9275 21.4067C18.0181 21.8028 17.0422 22.0006 16 22ZM18.3333 18L15.1667 14.8333V10.3333H16.8333V14.1667L19.5 16.8333L18.3333 18Z" fill="#F8F8F8"/>
</svg>
