<svg width="33" height="30" viewBox="0 0 33 30" fill="none" xmlns="http://www.w3.org/2000/svg">
<rect x="0.5" width="32" height="30" rx="10" fill="#5457DB"/>
<g clip-path="url(#clip0_171_3127)">
<path fill-rule="evenodd" clip-rule="evenodd" d="M16 5C21.523 5 26 9.477 26 15C26 20.523 21.523 25 16 25C10.477 25 6 20.523 6 15C6 9.477 10.477 5 16 5ZM16 7C13.8783 7 11.8434 7.84285 10.3431 9.34315C8.84285 10.8434 8 12.8783 8 15C8 17.1217 8.84285 19.1566 10.3431 20.6569C11.8434 22.1571 13.8783 23 16 23C18.1217 23 20.1566 22.1571 21.6569 20.6569C23.1571 19.1566 24 17.1217 24 15C24 12.8783 23.1571 10.8434 21.6569 9.34315C20.1566 7.84285 18.1217 7 16 7ZM17.5 10C18.4125 9.99868 19.2894 10.3538 19.9439 10.9896C20.5984 11.6255 20.9787 12.4918 21.0037 13.404C21.0288 14.3161 20.6966 15.202 20.078 15.8728C19.4593 16.5436 18.6032 16.9463 17.692 16.995L17.5 17H15V19C14.9997 19.2549 14.9021 19.5 14.7272 19.6854C14.5522 19.8707 14.313 19.9822 14.0586 19.9972C13.8042 20.0121 13.5536 19.9293 13.3582 19.7657C13.1627 19.6021 13.0371 19.3701 13.007 19.117L13 19V12C12.9998 11.4954 13.1904 11.0094 13.5335 10.6395C13.8766 10.2695 14.3468 10.0428 14.85 10.005L15 10H17.5ZM17.5 12H15V15H17.5C17.8852 14.9998 18.2556 14.8514 18.5344 14.5856C18.8132 14.3198 18.979 13.9569 18.9975 13.5721C19.016 13.1873 18.8858 12.8102 18.6338 12.5188C18.3818 12.2274 18.0274 12.0442 17.644 12.007L17.5 12Z" fill="#F8F8F8"/>
</g>
<defs>
<clipPath id="clip0_171_3127">
<rect width="24" height="24" fill="white" transform="translate(4 3)"/>
</clipPath>
</defs>
</svg>
